<mxfile host="app.diagrams.net" modified="2023-11-18T22:04:23.739Z" agent="Mozilla/5.0 (Windows NT 10.0; Win64; x64) AppleWebKit/537.36 (KHTML, like Gecko) Chrome/119.0.0.0 Safari/537.36" etag="aHLIEw4yRk0L25DbtrzS" version="22.1.3" type="google">
  <diagram name="Page-1" id="13e1069c-82ec-6db2-03f1-153e76fe0fe0">
    <mxGraphModel grid="1" page="1" gridSize="10" guides="1" tooltips="1" connect="1" arrows="1" fold="1" pageScale="1" pageWidth="1169" pageHeight="827" background="none" math="0" shadow="0">
      <root>
        <mxCell id="0" />
        <mxCell id="1" parent="0" />
        <mxCell id="VmN0Bkhsuba4bgQrLUi4-16" style="edgeStyle=orthogonalEdgeStyle;rounded=0;orthogonalLoop=1;jettySize=auto;html=1;dashed=1;endArrow=none;endFill=0;" edge="1" parent="1">
          <mxGeometry relative="1" as="geometry">
            <mxPoint x="452" y="1277" as="targetPoint" />
            <mxPoint x="452" y="1007" as="sourcePoint" />
          </mxGeometry>
        </mxCell>
        <mxCell id="VmN0Bkhsuba4bgQrLUi4-2" style="edgeStyle=orthogonalEdgeStyle;rounded=0;orthogonalLoop=1;jettySize=auto;html=1;dashed=1;endArrow=none;endFill=0;" edge="1" parent="1">
          <mxGeometry relative="1" as="geometry">
            <mxPoint x="210" y="1285" as="targetPoint" />
            <mxPoint x="209.5" y="353" as="sourcePoint" />
          </mxGeometry>
        </mxCell>
        <mxCell id="7baba1c4bc27f4b0-3" value=": Reservation&lt;br&gt;Manager" style="shape=umlLifeline;perimeter=lifelinePerimeter;whiteSpace=wrap;html=1;container=1;collapsible=0;recursiveResize=0;outlineConnect=0;rounded=1;shadow=0;comic=0;labelBackgroundColor=none;strokeWidth=1;fontFamily=Verdana;fontSize=12;align=center;fillColor=#fff2cc;strokeColor=#000033;" vertex="1" parent="1">
          <mxGeometry x="641" y="295" width="100" height="980" as="geometry" />
        </mxCell>
        <mxCell id="7baba1c4bc27f4b0-13" value="" style="html=1;points=[];perimeter=orthogonalPerimeter;rounded=0;shadow=0;comic=0;labelBackgroundColor=none;strokeWidth=1;fontFamily=Verdana;fontSize=12;align=center;" vertex="1" parent="7baba1c4bc27f4b0-3">
          <mxGeometry x="45" y="222" width="10" height="258" as="geometry" />
        </mxCell>
        <mxCell id="VmN0Bkhsuba4bgQrLUi4-27" value="" style="html=1;points=[];perimeter=orthogonalPerimeter;rounded=0;shadow=0;comic=0;labelBackgroundColor=none;strokeWidth=1;fontFamily=Verdana;fontSize=12;align=center;" vertex="1" parent="7baba1c4bc27f4b0-3">
          <mxGeometry x="51" y="241" width="10" height="70" as="geometry" />
        </mxCell>
        <mxCell id="VmN0Bkhsuba4bgQrLUi4-30" value="Return : TRUE" style="html=1;verticalAlign=bottom;endArrow=block;labelBackgroundColor=none;fontFamily=Verdana;fontSize=12;elbow=vertical;edgeStyle=orthogonalEdgeStyle;curved=1;exitX=1.066;exitY=0.713;exitPerimeter=0;" edge="1" parent="7baba1c4bc27f4b0-3">
          <mxGeometry relative="1" as="geometry">
            <mxPoint x="61" y="295" as="sourcePoint" />
            <mxPoint x="55" y="334" as="targetPoint" />
            <Array as="points">
              <mxPoint x="110" y="295" />
              <mxPoint x="110" y="334" />
            </Array>
          </mxGeometry>
        </mxCell>
        <mxCell id="7baba1c4bc27f4b0-4" value=":Pay" style="shape=umlLifeline;perimeter=lifelinePerimeter;whiteSpace=wrap;html=1;container=1;collapsible=0;recursiveResize=0;outlineConnect=0;rounded=1;shadow=0;comic=0;labelBackgroundColor=none;strokeWidth=1;fontFamily=Verdana;fontSize=12;align=center;fillColor=#fff2cc;strokeColor=#000033;" vertex="1" parent="1">
          <mxGeometry x="879" y="295" width="100" height="990" as="geometry" />
        </mxCell>
        <mxCell id="7baba1c4bc27f4b0-11" value="Request reservation" style="html=1;verticalAlign=bottom;endArrow=block;entryX=0;entryY=0;labelBackgroundColor=none;fontFamily=Verdana;fontSize=12;edgeStyle=elbowEdgeStyle;elbow=vertical;" edge="1" parent="1" source="7baba1c4bc27f4b0-9" target="7baba1c4bc27f4b0-10">
          <mxGeometry relative="1" as="geometry">
            <mxPoint x="390" y="405" as="sourcePoint" />
          </mxGeometry>
        </mxCell>
        <mxCell id="7baba1c4bc27f4b0-9" value="" style="html=1;points=[];perimeter=orthogonalPerimeter;rounded=0;shadow=0;comic=0;labelBackgroundColor=none;strokeWidth=1;fontFamily=Verdana;fontSize=12;align=center;" vertex="1" parent="1">
          <mxGeometry x="205" y="385" width="10" height="510" as="geometry" />
        </mxCell>
        <mxCell id="VmN0Bkhsuba4bgQrLUi4-1" value="Client" style="shape=umlActor;verticalLabelPosition=bottom;verticalAlign=top;html=1;outlineConnect=0;fillColor=#fff2cc;strokeColor=#000033;" vertex="1" parent="1">
          <mxGeometry x="195" y="274" width="30" height="60" as="geometry" />
        </mxCell>
        <mxCell id="VmN0Bkhsuba4bgQrLUi4-13" value="Website" style="shape=umlBoundary;whiteSpace=wrap;html=1;fillColor=#fff2cc;strokeColor=#190033;" vertex="1" parent="1">
          <mxGeometry x="393" y="280" width="100" height="80" as="geometry" />
        </mxCell>
        <mxCell id="7baba1c4bc27f4b0-10" value="" style="html=1;points=[];perimeter=orthogonalPerimeter;rounded=0;shadow=0;comic=0;labelBackgroundColor=none;strokeWidth=1;fontFamily=Verdana;fontSize=12;align=center;" vertex="1" parent="1">
          <mxGeometry x="447" y="395" width="10" height="460" as="geometry" />
        </mxCell>
        <mxCell id="VmN0Bkhsuba4bgQrLUi4-19" value="Display form" style="html=1;verticalAlign=bottom;endArrow=open;dashed=1;endSize=8;labelBackgroundColor=none;fontFamily=Verdana;fontSize=12;edgeStyle=elbowEdgeStyle;elbow=vertical;" edge="1" parent="1">
          <mxGeometry relative="1" as="geometry">
            <mxPoint x="215" y="436" as="targetPoint" />
            <Array as="points">
              <mxPoint x="290" y="436" />
              <mxPoint x="320" y="436" />
            </Array>
            <mxPoint x="445" y="436" as="sourcePoint" />
          </mxGeometry>
        </mxCell>
        <mxCell id="VmN0Bkhsuba4bgQrLUi4-22" value="Select criteria" style="html=1;verticalAlign=bottom;endArrow=block;entryX=0;entryY=0;labelBackgroundColor=none;fontFamily=Verdana;fontSize=12;edgeStyle=elbowEdgeStyle;elbow=vertical;" edge="1" parent="1">
          <mxGeometry relative="1" as="geometry">
            <mxPoint x="215" y="477" as="sourcePoint" />
            <mxPoint x="447" y="477" as="targetPoint" />
          </mxGeometry>
        </mxCell>
        <mxCell id="VmN0Bkhsuba4bgQrLUi4-26" value="Check avaibility" style="html=1;verticalAlign=bottom;endArrow=block;entryX=0;entryY=0;labelBackgroundColor=none;fontFamily=Verdana;fontSize=12;edgeStyle=elbowEdgeStyle;elbow=vertical;" edge="1" parent="1">
          <mxGeometry x="0.0044" relative="1" as="geometry">
            <mxPoint x="457" y="515.5" as="sourcePoint" />
            <mxPoint x="686" y="515.5" as="targetPoint" />
            <mxPoint as="offset" />
          </mxGeometry>
        </mxCell>
        <mxCell id="VmN0Bkhsuba4bgQrLUi4-28" value="Verify :SELECT" style="html=1;verticalAlign=bottom;endArrow=block;labelBackgroundColor=none;fontFamily=Verdana;fontSize=12;elbow=vertical;edgeStyle=orthogonalEdgeStyle;curved=1;entryX=1;entryY=0.286;entryPerimeter=0;exitX=1.038;exitY=0.345;exitPerimeter=0;" edge="1" parent="1">
          <mxGeometry relative="1" as="geometry">
            <mxPoint x="697" y="531" as="sourcePoint" />
            <mxPoint x="702" y="569" as="targetPoint" />
            <Array as="points">
              <mxPoint x="752" y="531" />
              <mxPoint x="752" y="569" />
            </Array>
          </mxGeometry>
        </mxCell>
        <mxCell id="VmN0Bkhsuba4bgQrLUi4-31" value="Available" style="html=1;verticalAlign=bottom;endArrow=open;dashed=1;endSize=8;labelBackgroundColor=none;fontFamily=Verdana;fontSize=12;edgeStyle=elbowEdgeStyle;elbow=vertical;" edge="1" parent="1">
          <mxGeometry relative="1" as="geometry">
            <mxPoint x="454" y="655" as="targetPoint" />
            <Array as="points">
              <mxPoint x="529" y="655" />
              <mxPoint x="559" y="655" />
            </Array>
            <mxPoint x="684" y="655" as="sourcePoint" />
          </mxGeometry>
        </mxCell>
        <mxCell id="VmN0Bkhsuba4bgQrLUi4-32" value="Alternative" style="shape=umlFrame;whiteSpace=wrap;html=1;pointerEvents=0;width=70;height=30;movable=1;resizable=1;rotatable=1;deletable=1;editable=1;locked=0;connectable=1;fillColor=#f5f5f5;fontColor=#333333;strokeColor=#666666;" vertex="1" parent="1">
          <mxGeometry x="150" y="495" width="860" height="800" as="geometry" />
        </mxCell>
        <mxCell id="VmN0Bkhsuba4bgQrLUi4-33" value="&lt;b&gt;&lt;font color=&quot;#000099&quot;&gt;&lt;u&gt;IF : Automatic Reservation&lt;/u&gt;&lt;/font&gt;&lt;/b&gt;" style="text;html=1;align=center;verticalAlign=middle;resizable=1;points=[];autosize=1;strokeColor=#6c8ebf;fillColor=#dae8fc;movable=1;rotatable=1;deletable=1;editable=1;locked=0;connectable=1;" vertex="1" parent="1">
          <mxGeometry x="153" y="565" width="180" height="30" as="geometry" />
        </mxCell>
        <mxCell id="VmN0Bkhsuba4bgQrLUi4-34" value="Propose time slots" style="html=1;verticalAlign=bottom;endArrow=open;dashed=1;endSize=8;labelBackgroundColor=none;fontFamily=Verdana;fontSize=12;edgeStyle=elbowEdgeStyle;elbow=vertical;" edge="1" parent="1">
          <mxGeometry relative="1" as="geometry">
            <mxPoint x="215" y="695" as="targetPoint" />
            <Array as="points">
              <mxPoint x="290" y="695" />
              <mxPoint x="320" y="695" />
            </Array>
            <mxPoint x="445" y="695" as="sourcePoint" />
          </mxGeometry>
        </mxCell>
        <mxCell id="VmN0Bkhsuba4bgQrLUi4-35" value="Confirm reservation" style="html=1;verticalAlign=bottom;endArrow=block;entryX=0;entryY=0;labelBackgroundColor=none;fontFamily=Verdana;fontSize=12;edgeStyle=elbowEdgeStyle;elbow=vertical;" edge="1" parent="1">
          <mxGeometry relative="1" as="geometry">
            <mxPoint x="216" y="735" as="sourcePoint" />
            <mxPoint x="448" y="735" as="targetPoint" />
          </mxGeometry>
        </mxCell>
        <mxCell id="VmN0Bkhsuba4bgQrLUi4-36" value="Process reservation" style="html=1;verticalAlign=bottom;endArrow=block;entryX=0;entryY=0;labelBackgroundColor=none;fontFamily=Verdana;fontSize=12;edgeStyle=elbowEdgeStyle;elbow=vertical;" edge="1" parent="1">
          <mxGeometry x="0.0044" relative="1" as="geometry">
            <mxPoint x="457" y="775" as="sourcePoint" />
            <mxPoint x="686" y="775" as="targetPoint" />
            <mxPoint as="offset" />
          </mxGeometry>
        </mxCell>
        <mxCell id="VmN0Bkhsuba4bgQrLUi4-37" value="Process payment" style="html=1;verticalAlign=bottom;endArrow=block;entryX=0;entryY=0;labelBackgroundColor=none;fontFamily=Verdana;fontSize=12;edgeStyle=elbowEdgeStyle;elbow=vertical;" edge="1" parent="1">
          <mxGeometry x="0.0044" relative="1" as="geometry">
            <mxPoint x="690" y="815" as="sourcePoint" />
            <mxPoint x="919" y="815" as="targetPoint" />
            <mxPoint as="offset" />
          </mxGeometry>
        </mxCell>
        <mxCell id="VmN0Bkhsuba4bgQrLUi4-38" value="Payment confirmation" style="html=1;verticalAlign=bottom;endArrow=open;dashed=1;endSize=8;labelBackgroundColor=none;fontFamily=Verdana;fontSize=12;edgeStyle=elbowEdgeStyle;elbow=vertical;" edge="1" parent="1" source="7baba1c4bc27f4b0-22">
          <mxGeometry relative="1" as="geometry">
            <mxPoint x="450" y="855" as="targetPoint" />
            <Array as="points">
              <mxPoint x="799" y="855" />
            </Array>
            <mxPoint x="924" y="855" as="sourcePoint" />
          </mxGeometry>
        </mxCell>
        <mxCell id="VmN0Bkhsuba4bgQrLUi4-39" value="Reservation confirmed" style="html=1;verticalAlign=bottom;endArrow=open;dashed=1;endSize=8;labelBackgroundColor=none;fontFamily=Verdana;fontSize=12;edgeStyle=elbowEdgeStyle;elbow=vertical;" edge="1" parent="1">
          <mxGeometry relative="1" as="geometry">
            <mxPoint x="215" y="895" as="targetPoint" />
            <Array as="points">
              <mxPoint x="290" y="895" />
              <mxPoint x="320" y="895" />
            </Array>
            <mxPoint x="445" y="895" as="sourcePoint" />
          </mxGeometry>
        </mxCell>
        <mxCell id="7baba1c4bc27f4b0-22" value="" style="html=1;points=[];perimeter=orthogonalPerimeter;rounded=0;shadow=0;comic=0;labelBackgroundColor=none;strokeWidth=1;fontFamily=Verdana;fontSize=12;align=center;" vertex="1" parent="1">
          <mxGeometry x="924" y="815" width="10" height="40" as="geometry" />
        </mxCell>
        <mxCell id="VmN0Bkhsuba4bgQrLUi4-41" value="&lt;b&gt;&lt;font color=&quot;#000099&quot;&gt;&lt;u&gt;ELSE : Manual Reservation&lt;/u&gt;&lt;/font&gt;&lt;/b&gt;" style="text;html=1;align=center;verticalAlign=middle;resizable=1;points=[];autosize=1;strokeColor=#6c8ebf;fillColor=#dae8fc;movable=1;rotatable=1;deletable=1;editable=1;locked=0;connectable=1;" vertex="1" parent="1">
          <mxGeometry x="153" y="947" width="180" height="30" as="geometry" />
        </mxCell>
        <mxCell id="VmN0Bkhsuba4bgQrLUi4-42" value="" style="endArrow=none;dashed=1;html=1;rounded=0;exitX=-0.005;exitY=0.559;exitDx=0;exitDy=0;exitPerimeter=0;entryX=1.002;entryY=0.562;entryDx=0;entryDy=0;entryPerimeter=0;" edge="1" parent="1" source="VmN0Bkhsuba4bgQrLUi4-32" target="VmN0Bkhsuba4bgQrLUi4-32">
          <mxGeometry width="50" height="50" relative="1" as="geometry">
            <mxPoint x="500" y="1095" as="sourcePoint" />
            <mxPoint x="550" y="1045" as="targetPoint" />
          </mxGeometry>
        </mxCell>
        <mxCell id="VmN0Bkhsuba4bgQrLUi4-45" value="" style="edgeStyle=orthogonalEdgeStyle;rounded=0;orthogonalLoop=1;jettySize=auto;html=1;dashed=1;endArrow=none;endFill=0;" edge="1" parent="1">
          <mxGeometry relative="1" as="geometry">
            <mxPoint x="452" y="1035" as="targetPoint" />
            <mxPoint x="451.5" y="360" as="sourcePoint" />
          </mxGeometry>
        </mxCell>
        <mxCell id="VmN0Bkhsuba4bgQrLUi4-46" value="" style="html=1;points=[];perimeter=orthogonalPerimeter;rounded=0;shadow=0;comic=0;labelBackgroundColor=none;strokeWidth=1;fontFamily=Verdana;fontSize=12;align=center;" vertex="1" parent="1">
          <mxGeometry x="205" y="1095" width="10" height="170" as="geometry" />
        </mxCell>
        <mxCell id="VmN0Bkhsuba4bgQrLUi4-47" value="" style="html=1;points=[];perimeter=orthogonalPerimeter;rounded=0;shadow=0;comic=0;labelBackgroundColor=none;strokeWidth=1;fontFamily=Verdana;fontSize=12;align=center;" vertex="1" parent="1">
          <mxGeometry x="447" y="1105" width="10" height="160" as="geometry" />
        </mxCell>
        <mxCell id="VmN0Bkhsuba4bgQrLUi4-48" value="" style="html=1;points=[];perimeter=orthogonalPerimeter;rounded=0;shadow=0;comic=0;labelBackgroundColor=none;strokeWidth=1;fontFamily=Verdana;fontSize=12;align=center;" vertex="1" parent="1">
          <mxGeometry x="686" y="1145" width="10" height="40" as="geometry" />
        </mxCell>
        <mxCell id="VmN0Bkhsuba4bgQrLUi4-50" value="Staff" style="shape=umlActor;verticalLabelPosition=bottom;verticalAlign=top;html=1;outlineConnect=0;fillColor=#fff2cc;strokeColor=#000033;" vertex="1" parent="1">
          <mxGeometry x="195" y="995" width="30" height="60" as="geometry" />
        </mxCell>
        <mxCell id="VmN0Bkhsuba4bgQrLUi4-51" value="Confirm reservation" style="html=1;verticalAlign=bottom;endArrow=block;entryX=0;entryY=0;labelBackgroundColor=none;fontFamily=Verdana;fontSize=12;edgeStyle=elbowEdgeStyle;elbow=vertical;" edge="1" parent="1">
          <mxGeometry relative="1" as="geometry">
            <mxPoint x="215" y="1106" as="sourcePoint" />
            <mxPoint x="447" y="1106" as="targetPoint" />
          </mxGeometry>
        </mxCell>
        <mxCell id="VmN0Bkhsuba4bgQrLUi4-52" value="Process reservation" style="html=1;verticalAlign=bottom;endArrow=block;entryX=0;entryY=0;labelBackgroundColor=none;fontFamily=Verdana;fontSize=12;edgeStyle=elbowEdgeStyle;elbow=vertical;" edge="1" parent="1">
          <mxGeometry x="0.0044" relative="1" as="geometry">
            <mxPoint x="456" y="1146" as="sourcePoint" />
            <mxPoint x="685" y="1146" as="targetPoint" />
            <mxPoint as="offset" />
          </mxGeometry>
        </mxCell>
        <mxCell id="VmN0Bkhsuba4bgQrLUi4-53" value="Process payment" style="html=1;verticalAlign=bottom;endArrow=block;entryX=0;entryY=0;labelBackgroundColor=none;fontFamily=Verdana;fontSize=12;edgeStyle=elbowEdgeStyle;elbow=vertical;" edge="1" parent="1">
          <mxGeometry x="0.0044" relative="1" as="geometry">
            <mxPoint x="689" y="1186" as="sourcePoint" />
            <mxPoint x="918" y="1186" as="targetPoint" />
            <mxPoint as="offset" />
          </mxGeometry>
        </mxCell>
        <mxCell id="VmN0Bkhsuba4bgQrLUi4-54" value="Payment confirmation" style="html=1;verticalAlign=bottom;endArrow=open;dashed=1;endSize=8;labelBackgroundColor=none;fontFamily=Verdana;fontSize=12;edgeStyle=elbowEdgeStyle;elbow=vertical;" edge="1" parent="1" source="VmN0Bkhsuba4bgQrLUi4-57">
          <mxGeometry relative="1" as="geometry">
            <mxPoint x="449" y="1226" as="targetPoint" />
            <Array as="points">
              <mxPoint x="798" y="1226" />
            </Array>
            <mxPoint x="923" y="1226" as="sourcePoint" />
          </mxGeometry>
        </mxCell>
        <mxCell id="VmN0Bkhsuba4bgQrLUi4-55" value="Reservation confirmed" style="html=1;verticalAlign=bottom;endArrow=open;dashed=1;endSize=8;labelBackgroundColor=none;fontFamily=Verdana;fontSize=12;edgeStyle=elbowEdgeStyle;elbow=vertical;" edge="1" parent="1">
          <mxGeometry relative="1" as="geometry">
            <mxPoint x="214" y="1266" as="targetPoint" />
            <Array as="points">
              <mxPoint x="289" y="1266" />
              <mxPoint x="319" y="1266" />
            </Array>
            <mxPoint x="444" y="1266" as="sourcePoint" />
          </mxGeometry>
        </mxCell>
        <mxCell id="VmN0Bkhsuba4bgQrLUi4-57" value="" style="html=1;points=[];perimeter=orthogonalPerimeter;rounded=0;shadow=0;comic=0;labelBackgroundColor=none;strokeWidth=1;fontFamily=Verdana;fontSize=12;align=center;" vertex="1" parent="1">
          <mxGeometry x="923" y="1186" width="10" height="40" as="geometry" />
        </mxCell>
        <mxCell id="VmN0Bkhsuba4bgQrLUi4-58" value="&lt;b&gt;&lt;u&gt;&lt;font style=&quot;font-size: 16px;&quot;&gt;Diagramme de séquence : Processus de réservation&lt;/font&gt;&lt;/u&gt;&lt;/b&gt;" style="text;html=1;align=center;verticalAlign=middle;resizable=0;points=[];autosize=1;strokeColor=none;fillColor=none;" vertex="1" parent="1">
          <mxGeometry x="104" y="100" width="420" height="30" as="geometry" />
        </mxCell>
        <mxCell id="wyY1TC-I_c6YZmHjgUld-1" value="&lt;b&gt;&lt;font color=&quot;#000099&quot;&gt;&lt;u&gt;END&lt;/u&gt;&lt;/font&gt;&lt;/b&gt;" style="text;html=1;align=center;verticalAlign=middle;resizable=1;points=[];autosize=1;strokeColor=#6c8ebf;fillColor=#dae8fc;movable=1;rotatable=1;deletable=1;editable=1;locked=0;connectable=1;" vertex="1" parent="1">
          <mxGeometry x="154" y="1261" width="50" height="30" as="geometry" />
        </mxCell>
      </root>
    </mxGraphModel>
  </diagram>
</mxfile>
